<?xml version="1.0" encoding="utf-8"?>
<!-- Generator: Adobe Illustrator 16.0.0, SVG Export Plug-In . SVG Version: 6.00 Build 0)  -->
<!DOCTYPE svg PUBLIC "-//W3C//DTD SVG 1.1//EN" "http://www.w3.org/Graphics/SVG/1.1/DTD/svg11.dtd">
<svg version="1.1" id="Layer_1" xmlns="http://www.w3.org/2000/svg" xmlns:xlink="http://www.w3.org/1999/xlink" x="0px" y="0px"
	 width="654.565px" height="139px" viewBox="0 0 654.565 139" enable-background="new 0 0 654.565 139" xml:space="preserve">
<text transform="matrix(1 0 0 1 184.5449 -161.1025)" fill="#8D5524" font-family="'DINCondensed-Bold'" font-size="71.1772">we</text>
<text transform="matrix(1 0 0 1 184.5449 -125.9932)" fill="#FFDBAC" font-family="'DINCondensed-Bold'" font-size="63.751">are</text>
<text transform="matrix(1 0 0 1 257.7129 -126.8906)" fill="#E0AC69" font-family="'DINCondensed-Bold'" font-size="99.3716">beautiful</text>
<g>
	<g opacity="0.8">
		<path fill="#EEAF1D" d="M45.1,68.356c0.577,1.013,0.942,2.319,0.942,3.62c0,1.159-0.294,2.248-0.799,3.189l-17.598,30.199
			c-0.653,1.011-1.448,1.448-2.319,1.448c-0.577,0-1.23-0.219-1.807-0.507c-0.941-0.506-1.595-1.229-1.595-2.171
			c0-0.436,0.147-1.019,0.506-1.525l16.803-28.75c0.288-0.653,0.506-1.301,0.506-1.953c0-0.726-0.218-1.377-0.506-2.03
			L22.429,41.201c-0.359-0.582-0.506-1.089-0.506-1.595c0-0.942,0.654-1.666,1.595-2.172c0.577-0.289,1.16-0.505,1.736-0.505
			c0.942,0,1.736,0.436,2.39,1.519L45.1,68.356z"/>
	</g>
	<g opacity="0.4">
		<path fill="#EEAF1D" d="M110.417,107.181h-8.981v-1.438h7.543V37.368h-7.543v-1.437h8.981V107.181z"/>
	</g>
	<g opacity="0.6">
		<path fill="#EEAF1D" d="M81.424,106.524c1.686-5.99,2.849-12.181,3.487-18.576c0.639-6.399,0.962-12.824,0.962-19.278
			c0-5.989-0.395-11.7-1.179-17.136c-0.785-5.438-1.874-10.713-3.271-15.831h2.967c1.741,2.617,3.27,5.365,4.576,8.242
			c1.312,2.881,2.4,5.886,3.271,9.026c0.815,3.139,1.438,6.253,1.878,9.336c0.436,3.077,0.653,6.013,0.653,8.808
			c0,2.963-0.232,6.015-0.699,9.153c-0.465,3.145-1.134,6.283-2.004,9.422c-1.863,6.278-4.419,11.892-7.674,16.834H81.424z"/>
	</g>
	<g opacity="0.4">
		<path fill="#EEAF1D" d="M72.726,78.305c-0.38,0-0.795,0.039-1.251,0.121c-0.456,0.082-0.87,0.243-1.25,0.486
			c-0.375,0.237-0.684,0.618-0.926,1.123c-0.238,0.511-0.359,1.17-0.359,1.975v11.604c0,8.814-4.004,13.217-12.009,13.217h-9.344
			V93.213h6.039c0.486,0,0.795-0.146,0.932-0.445c0.132-0.294,0.198-0.603,0.198-0.926V80.401c0-1.717,0.258-3.13,0.77-4.233
			c0.506-1.099,1.083-1.974,1.73-2.618c0.75-0.749,1.61-1.314,2.577-1.69c-0.967-0.375-1.828-0.941-2.577-1.691
			c-0.648-0.648-1.225-1.518-1.73-2.623c-0.511-1.098-0.77-2.509-0.77-4.227V51.874c0-0.321-0.065-0.629-0.198-0.928
			c-0.137-0.293-0.446-0.44-0.932-0.44h-6.039V36.887h9.344c8.005,0,12.009,4.404,12.009,13.214v11.602
			c0,0.806,0.122,1.468,0.359,1.975c0.242,0.511,0.552,0.886,0.926,1.129c0.38,0.244,0.794,0.405,1.25,0.487
			c0.456,0.08,0.871,0.116,1.251,0.116h1.772v12.895H72.726z"/>
	</g>
	<g>
		<rect x="17" y="27" fill="#EEAF1D" width="94" height="3"/>
	</g>
	<g>
		<rect x="17" y="115" fill="#EEAF1D" width="94" height="3"/>
	</g>
	<g opacity="0.8">
		<path fill="#EEAF1D" d="M182.932,46.618L170.706,98.26h-9.163l-5.705-30.662h-0.202L149.93,98.26h-9.168l-12.226-51.642h11.006
			l6.313,32.086h0.203l5.807-32.086h8.15l5.498,32.086h0.207l6.212-32.086H182.932z"/>
		<path fill="#EEAF1D" d="M216.749,76.361h-20.572v7.027c0,1.629,0.454,2.884,1.372,3.77c0.916,0.882,2.155,1.322,3.719,1.322
			c1.972,0,3.277-0.577,3.92-1.733c0.648-1.154,1.039-2.307,1.176-3.462h10.386c0,4.551-1.391,8.217-4.175,11
			c-1.357,1.428-2.986,2.547-4.892,3.362c-1.898,0.814-4.039,1.221-6.415,1.221c-3.259,0-6.028-0.675-8.301-2.036
			c-2.278-1.358-4.024-3.159-5.245-5.397c-0.749-1.362-1.26-2.92-1.529-4.688c-0.273-1.766-0.409-3.701-0.409-5.806V63.931
			c0-2.104,0.136-4.04,0.409-5.805c0.27-1.762,0.78-3.326,1.529-4.683c1.221-2.244,2.967-4.04,5.245-5.403
			c2.272-1.356,5.042-2.034,8.301-2.034c2.376,0,4.533,0.405,6.467,1.219c1.938,0.815,3.584,1.939,4.94,3.361
			c2.719,3.059,4.074,6.896,4.074,11.513V76.361z M196.177,68.21h10.187v-5.909c0-1.969-0.462-3.448-1.379-4.429
			c-0.916-0.982-2.156-1.479-3.717-1.479c-1.563,0-2.803,0.497-3.719,1.479c-0.918,0.981-1.372,2.46-1.372,4.429V68.21z"/>
	</g>
	<g opacity="0.4">
		<path fill="#EEAF1D" d="M262.992,98.26V92.96h-0.204c-1.356,1.903-2.731,3.361-4.125,4.384c-1.392,1.018-3.342,1.525-5.857,1.525
			c-1.221,0-2.461-0.189-3.716-0.558c-1.256-0.375-2.46-1.067-3.615-2.09c-1.158-0.948-2.091-2.324-2.805-4.127
			c-0.708-1.797-1.067-4.121-1.067-6.976c0-2.916,0.237-5.482,0.713-7.69c0.477-2.208,1.357-4.055,2.648-5.553
			c1.225-1.423,2.887-2.491,4.992-3.205c2.105-0.715,4.788-1.072,8.049-1.072c0.339,0,0.708,0,1.119,0
			c0.405,0,0.78,0.034,1.119,0.104c0.339,0.065,0.749,0.102,1.226,0.102c0.47,0,0.981,0.035,1.523,0.101v-5.401
			c0-1.76-0.37-3.225-1.119-4.378c-0.75-1.155-2.105-1.733-4.076-1.733c-1.355,0-2.598,0.445-3.715,1.328
			c-1.118,0.879-1.853,2.17-2.192,3.867h-10.085c0.273-4.617,1.838-8.352,4.688-11.204c1.357-1.357,2.986-2.425,4.89-3.21
			c1.898-0.779,4.04-1.168,6.414-1.168c2.172,0,4.212,0.339,6.117,1.017c1.897,0.678,3.562,1.697,4.985,3.059
			c1.361,1.355,2.445,3.053,3.261,5.092c0.815,2.035,1.225,4.415,1.225,7.128V98.26H262.992z M262.992,76.052
			c-1.155-0.202-2.102-0.304-2.85-0.304c-2.244,0-4.163,0.527-5.758,1.58s-2.395,2.972-2.395,5.755c0,1.97,0.477,3.564,1.428,4.785
			c0.952,1.225,2.273,1.838,3.975,1.838c1.767,0,3.139-0.577,4.125-1.732c0.982-1.155,1.475-2.784,1.475-4.891V76.052z"/>
		<path fill="#EEAF1D" d="M281.024,98.26V46.618h10.389v5.497c2.105-1.897,4.177-3.396,6.211-4.479
			c2.041-1.089,4.552-1.629,7.538-1.629v11c-1.018-0.409-2.07-0.613-3.154-0.613c-1.088,0-2.262,0.188-3.517,0.563
			c-1.258,0.375-2.391,1.002-3.412,1.883c-1.084,0.886-1.972,2.035-2.648,3.462c-0.678,1.427-1.018,3.195-1.018,5.297V98.26H281.024
			z"/>
		<path fill="#EEAF1D" d="M339.391,76.361h-20.579v7.027c0,1.629,0.461,2.884,1.377,3.77c0.917,0.882,2.156,1.322,3.716,1.322
			c1.97,0,3.275-0.577,3.923-1.733c0.645-1.154,1.033-2.307,1.171-3.462h10.393c0,4.551-1.393,8.217-4.177,11
			c-1.362,1.428-2.991,2.547-4.89,3.362c-1.905,0.814-4.04,1.221-6.42,1.221c-3.256,0-6.024-0.675-8.298-2.036
			c-2.277-1.358-4.024-3.159-5.249-5.397c-0.746-1.362-1.258-2.92-1.525-4.688c-0.273-1.766-0.409-3.701-0.409-5.806V63.931
			c0-2.104,0.136-4.04,0.409-5.805c0.268-1.762,0.779-3.326,1.525-4.683c1.225-2.244,2.972-4.04,5.249-5.403
			c2.273-1.356,5.042-2.034,8.298-2.034c2.38,0,4.535,0.405,6.47,1.219c1.934,0.815,3.579,1.939,4.941,3.361
			c2.713,3.059,4.075,6.896,4.075,11.513V76.361z M318.812,68.21h10.187v-5.909c0-1.969-0.457-3.448-1.373-4.429
			c-0.915-0.982-2.156-1.479-3.721-1.479c-1.56,0-2.799,0.497-3.716,1.479c-0.916,0.981-1.377,2.46-1.377,4.429V68.21z"/>
	</g>
	<g opacity="0.6">
		<path fill="#EEAF1D" d="M365.973,98.26V25.735h10.394v25.566h0.204c1.154-1.696,2.524-3.003,4.126-3.924
			c1.594-0.917,3.411-1.371,5.446-1.371c2.512,0,4.465,0.44,5.858,1.32c1.392,0.886,2.53,2.006,3.412,3.361
			c0.679,1.088,1.119,2.518,1.326,4.278c0.202,1.768,0.304,4.521,0.304,8.251v19.664c0,2.85-0.137,5.124-0.404,6.825
			c-0.273,1.696-0.714,3.124-1.327,4.277c-1.767,3.261-4.79,4.886-9.067,4.886c-2.581,0-4.552-0.507-5.907-1.525
			c-1.357-1.022-2.684-2.279-3.971-3.772v4.688H365.973z M386.654,62.503c0-1.629-0.359-3.052-1.073-4.277
			c-0.709-1.22-2.05-1.833-4.02-1.833c-1.498,0-2.734,0.527-3.721,1.581c-0.982,1.053-1.475,2.396-1.475,4.025v20.067
			c0,1.899,0.472,3.448,1.424,4.632c0.95,1.19,2.208,1.783,3.771,1.783c1.761,0,3.053-0.644,3.867-1.934
			c0.815-1.292,1.226-2.987,1.226-5.093V62.503z"/>
		<path fill="#EEAF1D" d="M435.65,76.361h-20.58v7.027c0,1.629,0.462,2.884,1.377,3.77c0.916,0.882,2.152,1.322,3.716,1.322
			c1.969,0,3.275-0.577,3.924-1.733c0.644-1.154,1.032-2.307,1.169-3.462h10.395c0,4.551-1.397,8.217-4.177,11
			c-1.361,1.428-2.993,2.547-4.891,3.362c-1.903,0.814-4.041,1.221-6.42,1.221c-3.26,0-6.024-0.675-8.302-2.036
			c-2.274-1.358-4.021-3.159-5.246-5.397c-0.749-1.362-1.255-2.92-1.528-4.688c-0.268-1.766-0.405-3.701-0.405-5.806V63.931
			c0-2.104,0.138-4.04,0.405-5.805c0.273-1.762,0.779-3.326,1.528-4.683c1.226-2.244,2.972-4.04,5.246-5.403
			c2.277-1.356,5.042-2.034,8.302-2.034c2.379,0,4.537,0.405,6.471,1.219c1.933,0.815,3.578,1.939,4.941,3.361
			c2.714,3.059,4.075,6.896,4.075,11.513V76.361z M415.07,68.21h10.186v-5.909c0-1.969-0.455-3.448-1.372-4.429
			c-0.915-0.982-2.156-1.479-3.721-1.479c-1.563,0-2.8,0.497-3.716,1.479c-0.915,0.981-1.377,2.46-1.377,4.429V68.21z"/>
		<path fill="#EEAF1D" d="M462.947,98.26V92.96h-0.208c-1.356,1.903-2.734,3.361-4.121,4.384c-1.393,1.018-3.347,1.525-5.857,1.525
			c-1.226,0-2.465-0.189-3.721-0.558c-1.256-0.375-2.46-1.067-3.615-2.09c-1.154-0.948-2.085-2.324-2.799-4.127
			c-0.716-1.797-1.073-4.121-1.073-6.976c0-2.916,0.237-5.482,0.714-7.69s1.356-4.055,2.646-5.553
			c1.227-1.423,2.886-2.491,4.993-3.205c2.105-0.715,4.789-1.072,8.05-1.072c0.339,0,0.713,0,1.118,0
			c0.41,0,0.779,0.034,1.118,0.104c0.339,0.065,0.749,0.102,1.227,0.102c0.476,0,0.981,0.035,1.528,0.101v-5.401
			c0-1.76-0.375-3.225-1.124-4.378c-0.745-1.155-2.106-1.733-4.069-1.733c-1.363,0-2.599,0.445-3.722,1.328
			c-1.12,0.879-1.849,2.17-2.188,3.867h-10.084c0.269-4.617,1.833-8.352,4.683-11.204c1.355-1.357,2.987-2.425,4.89-3.21
			c1.899-0.779,4.041-1.168,6.421-1.168c2.171,0,4.206,0.339,6.108,1.017c1.899,0.678,3.564,1.697,4.993,3.059
			c1.355,1.355,2.444,3.053,3.26,5.092c0.815,2.035,1.22,4.415,1.22,7.128V98.26H462.947z M462.947,76.052
			c-1.159-0.202-2.107-0.304-2.856-0.304c-2.237,0-4.155,0.527-5.75,1.58c-1.6,1.053-2.396,2.972-2.396,5.755
			c0,1.97,0.472,3.564,1.424,4.785c0.951,1.225,2.277,1.838,3.974,1.838c1.767,0,3.139-0.577,4.126-1.732
			c0.982-1.155,1.479-2.784,1.479-4.891V76.052z"/>
		<path fill="#EEAF1D" d="M512.044,46.618V98.26h-10.395v-4.991h-0.202c-1.088,1.629-2.394,2.972-3.917,4.025
			c-1.53,1.047-3.484,1.575-5.858,1.575c-1.292,0-2.582-0.219-3.871-0.659c-1.293-0.44-2.446-1.174-3.465-2.191
			c-1.018-1.019-1.833-2.325-2.444-3.925c-0.613-1.595-0.916-3.543-0.916-5.852V46.618h10.388v35.751c0,1.905,0.44,3.397,1.326,4.48
			c0.881,1.09,2.136,1.631,3.767,1.631c1.969,0,3.326-0.613,4.075-1.833c0.75-1.22,1.118-2.986,1.118-5.295V46.618H512.044z"/>
		<path fill="#EEAF1D" d="M520.599,46.618V30.93h10.39v15.688h6.418v8.146h-6.418v28.625c0,1.225,0.121,2.175,0.358,2.854
			c0.239,0.678,0.628,1.184,1.17,1.524c0.541,0.344,1.204,0.547,1.983,0.613c0.781,0.071,1.753,0.102,2.906,0.102v9.779h-4.277
			c-2.379,0-4.364-0.374-5.96-1.123c-1.599-0.744-2.868-1.696-3.82-2.851c-0.953-1.154-1.646-2.461-2.086-3.924
			c-0.446-1.457-0.664-2.865-0.664-4.227V54.763h-5.194v-8.146H520.599z"/>
		<path fill="#EEAF1D" d="M541.375,36.123V25.735h10.395v10.388H541.375z M541.375,98.26V46.618h10.395V98.26H541.375z"/>
		<path fill="#EEAF1D" d="M561.646,98.26V54.763h-5.094v-8.146h5.094v-7.032c0-2.51,0.375-4.632,1.124-6.362
			c0.744-1.732,1.761-3.175,3.053-4.33c1.226-1.153,2.631-1.969,4.228-2.444c1.593-0.475,3.244-0.714,4.939-0.714h4.791v9.775
			h-4.688c-2.036,0-3.053,1.191-3.053,3.57v7.538h7.741v8.146h-7.741V98.26H561.646z"/>
		<path fill="#EEAF1D" d="M614.003,46.618V98.26H603.61v-4.991h-0.202c-1.09,1.629-2.396,2.972-3.92,4.025
			c-1.528,1.047-3.481,1.575-5.857,1.575c-1.291,0-2.582-0.219-3.872-0.659c-1.291-0.44-2.446-1.174-3.462-2.191
			c-1.019-1.019-1.834-2.325-2.447-3.925c-0.611-1.595-0.915-3.543-0.915-5.852V46.618h10.388v35.751c0,1.905,0.44,3.397,1.326,4.48
			c0.883,1.09,2.137,1.631,3.767,1.631c1.971,0,3.327-0.613,4.076-1.833c0.748-1.22,1.119-2.986,1.119-5.295V46.618H614.003z"/>
		<path fill="#EEAF1D" d="M621.945,25.735h10.395v57.956c0,1.975,0.354,3.312,1.068,4.025c0.714,0.713,2.05,1.174,4.024,1.376v9.777
			c-2.38,0-4.521-0.189-6.42-0.558c-1.903-0.375-3.532-1.104-4.891-2.191c-1.355-1.019-2.394-2.461-3.107-4.329
			c-0.71-1.869-1.069-4.329-1.069-7.386V25.735z"/>
	</g>
</g>
<g>
	<g opacity="0.8">
		<path fill="#EEAF1D" d="M71.778,423.901c0.224,0.391,0.363,0.895,0.363,1.396c0,0.447-0.112,0.867-0.308,1.23l-6.789,11.65
			c-0.252,0.391-0.559,0.559-0.895,0.559c-0.224,0-0.475-0.084-0.698-0.195c-0.363-0.195-0.614-0.475-0.614-0.838
			c0-0.168,0.056-0.393,0.195-0.588l6.481-11.092c0.112-0.252,0.196-0.502,0.196-0.754c0-0.279-0.084-0.531-0.196-0.783
			l-6.481-11.062c-0.14-0.225-0.195-0.42-0.195-0.615c0-0.363,0.251-0.643,0.614-0.838c0.224-0.111,0.447-0.195,0.671-0.195
			c0.363,0,0.67,0.168,0.922,0.586L71.778,423.901z"/>
	</g>
	<g opacity="0.4">
		<path fill="#EEAF1D" d="M96.977,438.88h-3.464v-0.555h2.91v-26.379h-2.91v-0.555h3.464V438.88z"/>
	</g>
	<g opacity="0.6">
		<path fill="#EEAF1D" d="M85.792,438.626c0.65-2.311,1.1-4.699,1.347-7.166c0.246-2.469,0.37-4.947,0.37-7.438
			c0-2.311-0.151-4.514-0.455-6.611c-0.303-2.098-0.723-4.133-1.262-6.107h1.145c0.673,1.01,1.262,2.07,1.767,3.18
			c0.505,1.111,0.925,2.271,1.262,3.482c0.313,1.211,0.555,2.412,0.724,3.602c0.168,1.188,0.252,2.32,0.252,3.398
			c0,1.143-0.09,2.32-0.27,3.531c-0.18,1.213-0.437,2.424-0.773,3.635c-0.718,2.422-1.705,4.588-2.961,6.494H85.792z"/>
	</g>
	<g opacity="0.4">
		<path opacity="0.5" fill="#EEAF1D" d="M82.436,427.739c-0.146,0-0.306,0.016-0.481,0.047c-0.177,0.031-0.337,0.094-0.482,0.188
			c-0.145,0.092-0.264,0.238-0.357,0.434c-0.093,0.197-0.14,0.451-0.14,0.762v4.477c0,3.4-1.544,5.1-4.632,5.1h-3.606v-5.254h2.331
			c0.187,0,0.306-0.057,0.358-0.172c0.051-0.113,0.077-0.232,0.077-0.357v-4.414c0-0.662,0.099-1.207,0.296-1.633
			c0.196-0.424,0.419-0.762,0.668-1.01c0.29-0.289,0.622-0.508,0.995-0.652c-0.373-0.145-0.705-0.363-0.995-0.652
			c-0.249-0.25-0.472-0.586-0.668-1.012c-0.197-0.424-0.296-0.969-0.296-1.631v-4.416c0-0.123-0.026-0.242-0.077-0.357
			c-0.053-0.113-0.172-0.17-0.358-0.17h-2.331v-5.254h3.606c3.088,0,4.632,1.699,4.632,5.098v4.477c0,0.311,0.047,0.566,0.14,0.762
			c0.094,0.197,0.213,0.342,0.357,0.436c0.146,0.094,0.306,0.156,0.482,0.188c0.176,0.031,0.336,0.045,0.481,0.045h0.685v4.975
			H82.436z"/>
	</g>
	<g>
		<rect x="61" y="407" fill="#EEAF1D" width="36" height="3"/>
	</g>
	<g>
		<rect x="61" y="441" fill="#EEAF1D" width="36" height="3"/>
	</g>
	<g opacity="0.8">
		<path fill="#EEAF1D" d="M124.954,415.515l-4.716,19.924h-3.536l-2.201-11.83h-0.078l-2.201,11.83h-3.537l-4.716-19.924h4.245
			l2.437,12.379h0.078l2.24-12.379h3.144l2.122,12.379h0.079l2.396-12.379H124.954z"/>
		<path fill="#EEAF1D" d="M138.001,426.989h-7.938v2.711c0,0.629,0.177,1.113,0.53,1.455c0.354,0.34,0.831,0.51,1.435,0.51
			c0.76,0,1.264-0.223,1.513-0.668s0.399-0.891,0.452-1.336h4.009c0,1.756-0.538,3.17-1.611,4.244
			c-0.524,0.551-1.153,0.982-1.887,1.297s-1.559,0.471-2.476,0.471c-1.258,0-2.325-0.26-3.203-0.785
			c-0.878-0.523-1.552-1.219-2.023-2.082c-0.289-0.525-0.485-1.127-0.59-1.809s-0.157-1.428-0.157-2.24v-6.562
			c0-0.812,0.053-1.559,0.157-2.24c0.104-0.68,0.301-1.283,0.59-1.807c0.472-0.865,1.146-1.559,2.023-2.084
			c0.878-0.523,1.945-0.785,3.203-0.785c0.917,0,1.749,0.156,2.495,0.471c0.747,0.314,1.382,0.748,1.906,1.297
			c1.048,1.18,1.572,2.66,1.572,4.441V426.989z M130.063,423.845h3.93v-2.279c0-0.76-0.177-1.33-0.53-1.709s-0.832-0.57-1.435-0.57
			c-0.604,0-1.081,0.191-1.435,0.57s-0.53,0.949-0.53,1.709V423.845z"/>
	</g>
	<g opacity="0.4">
		<path fill="#EEAF1D" d="M155.842,435.438v-2.045h-0.078c-0.525,0.734-1.055,1.297-1.592,1.691
			c-0.537,0.393-1.291,0.588-2.26,0.588c-0.473,0-0.949-0.072-1.434-0.215c-0.486-0.145-0.951-0.412-1.396-0.807
			c-0.445-0.365-0.805-0.896-1.08-1.592c-0.275-0.693-0.412-1.59-0.412-2.691c0-1.125,0.09-2.115,0.273-2.967
			s0.525-1.564,1.023-2.143c0.471-0.549,1.113-0.961,1.926-1.236c0.811-0.275,1.846-0.414,3.104-0.414c0.131,0,0.275,0,0.432,0
			c0.158,0,0.301,0.014,0.434,0.041c0.131,0.025,0.287,0.039,0.471,0.039s0.379,0.014,0.59,0.039v-2.084
			c0-0.68-0.145-1.244-0.432-1.689c-0.289-0.445-0.812-0.668-1.572-0.668c-0.525,0-1.002,0.172-1.436,0.512
			c-0.432,0.34-0.713,0.838-0.844,1.492h-3.891c0.104-1.781,0.707-3.223,1.807-4.322c0.525-0.523,1.154-0.936,1.887-1.238
			c0.734-0.301,1.559-0.451,2.477-0.451c0.838,0,1.623,0.131,2.357,0.393c0.732,0.262,1.375,0.654,1.926,1.18
			c0.523,0.523,0.943,1.178,1.258,1.965c0.314,0.785,0.471,1.703,0.471,2.75v13.873H155.842z M155.842,426.87
			c-0.445-0.078-0.812-0.117-1.1-0.117c-0.865,0-1.605,0.203-2.221,0.609c-0.617,0.406-0.924,1.146-0.924,2.221
			c0,0.76,0.184,1.375,0.551,1.846c0.365,0.473,0.877,0.709,1.531,0.709c0.682,0,1.213-0.223,1.592-0.668
			c0.381-0.445,0.57-1.074,0.57-1.887V426.87z"/>
		<path fill="#EEAF1D" d="M162.797,435.438v-19.924h4.01v2.121c0.811-0.732,1.609-1.311,2.396-1.729
			c0.785-0.42,1.754-0.629,2.908-0.629v4.244c-0.393-0.158-0.801-0.236-1.219-0.236c-0.42,0-0.871,0.072-1.355,0.217
			s-0.924,0.387-1.316,0.727c-0.42,0.342-0.76,0.785-1.021,1.336c-0.264,0.551-0.393,1.232-0.393,2.043v11.83H162.797z"/>
		<path fill="#EEAF1D" d="M185.314,426.989h-7.938v2.711c0,0.629,0.176,1.113,0.531,1.455c0.354,0.34,0.83,0.51,1.434,0.51
			c0.76,0,1.264-0.223,1.514-0.668c0.248-0.445,0.398-0.891,0.451-1.336h4.008c0,1.756-0.537,3.17-1.611,4.244
			c-0.523,0.551-1.152,0.982-1.885,1.297c-0.734,0.314-1.561,0.471-2.477,0.471c-1.258,0-2.326-0.26-3.203-0.785
			c-0.877-0.523-1.553-1.219-2.023-2.082c-0.289-0.525-0.484-1.127-0.59-1.809s-0.156-1.428-0.156-2.24v-6.562
			c0-0.812,0.051-1.559,0.156-2.24c0.105-0.68,0.301-1.283,0.59-1.807c0.471-0.865,1.146-1.559,2.023-2.084
			c0.877-0.523,1.945-0.785,3.203-0.785c0.916,0,1.748,0.156,2.496,0.471c0.746,0.314,1.381,0.748,1.904,1.297
			c1.049,1.18,1.572,2.66,1.572,4.441V426.989z M177.377,423.845h3.93v-2.279c0-0.76-0.178-1.33-0.531-1.709s-0.832-0.57-1.434-0.57
			c-0.604,0-1.08,0.191-1.434,0.57c-0.355,0.379-0.531,0.949-0.531,1.709V423.845z"/>
	</g>
	<g opacity="0.6">
		<path fill="#EEAF1D" d="M195.572,435.438v-27.98h4.008v9.863h0.078c0.445-0.654,0.977-1.158,1.592-1.514
			c0.615-0.354,1.316-0.529,2.104-0.529c0.969,0,1.721,0.17,2.26,0.51c0.535,0.342,0.975,0.773,1.316,1.297
			c0.262,0.42,0.432,0.971,0.51,1.65c0.078,0.682,0.119,1.744,0.119,3.184v7.586c0,1.1-0.055,1.977-0.158,2.633
			c-0.105,0.654-0.275,1.205-0.512,1.65c-0.682,1.258-1.846,1.885-3.496,1.885c-0.996,0-1.756-0.195-2.279-0.588
			c-0.525-0.395-1.035-0.879-1.533-1.455v1.809H195.572z M203.549,421.644c0-0.629-0.137-1.178-0.412-1.65
			c-0.275-0.471-0.793-0.707-1.553-0.707c-0.576,0-1.055,0.203-1.434,0.609c-0.381,0.406-0.57,0.924-0.57,1.553v7.742
			c0,0.732,0.184,1.33,0.551,1.787c0.365,0.459,0.85,0.688,1.453,0.688c0.682,0,1.18-0.248,1.494-0.746s0.471-1.152,0.471-1.965
			V421.644z"/>
		<path fill="#EEAF1D" d="M222.451,426.989h-7.938v2.711c0,0.629,0.176,1.113,0.529,1.455c0.354,0.34,0.832,0.51,1.436,0.51
			c0.76,0,1.264-0.223,1.512-0.668c0.25-0.445,0.4-0.891,0.453-1.336h4.008c0,1.756-0.537,3.17-1.611,4.244
			c-0.523,0.551-1.152,0.982-1.887,1.297c-0.732,0.314-1.559,0.471-2.475,0.471c-1.258,0-2.326-0.26-3.203-0.785
			c-0.879-0.523-1.553-1.219-2.023-2.082c-0.289-0.525-0.486-1.127-0.59-1.809c-0.105-0.682-0.158-1.428-0.158-2.24v-6.562
			c0-0.812,0.053-1.559,0.158-2.24c0.104-0.68,0.301-1.283,0.59-1.807c0.471-0.865,1.145-1.559,2.023-2.084
			c0.877-0.523,1.945-0.785,3.203-0.785c0.916,0,1.748,0.156,2.494,0.471c0.748,0.314,1.383,0.748,1.906,1.297
			c1.049,1.18,1.572,2.66,1.572,4.441V426.989z M214.514,423.845h3.93v-2.279c0-0.76-0.178-1.33-0.531-1.709s-0.832-0.57-1.434-0.57
			c-0.604,0-1.082,0.191-1.436,0.57s-0.529,0.949-0.529,1.709V423.845z"/>
		<path fill="#EEAF1D" d="M232.982,435.438v-2.045h-0.078c-0.523,0.734-1.055,1.297-1.592,1.691
			c-0.537,0.393-1.291,0.588-2.26,0.588c-0.471,0-0.949-0.072-1.434-0.215c-0.486-0.145-0.951-0.412-1.396-0.807
			c-0.445-0.365-0.805-0.896-1.08-1.592c-0.275-0.693-0.412-1.59-0.412-2.691c0-1.125,0.092-2.115,0.275-2.967
			c0.182-0.852,0.523-1.564,1.021-2.143c0.471-0.549,1.113-0.961,1.926-1.236c0.811-0.275,1.846-0.414,3.104-0.414
			c0.131,0,0.275,0,0.434,0c0.156,0,0.301,0.014,0.432,0.041c0.131,0.025,0.287,0.039,0.471,0.039s0.381,0.014,0.59,0.039v-2.084
			c0-0.68-0.145-1.244-0.432-1.689c-0.289-0.445-0.812-0.668-1.572-0.668c-0.523,0-1.002,0.172-1.434,0.512
			c-0.434,0.34-0.715,0.838-0.846,1.492h-3.891c0.105-1.781,0.707-3.223,1.809-4.322c0.523-0.523,1.152-0.936,1.885-1.238
			c0.734-0.301,1.559-0.451,2.477-0.451c0.838,0,1.625,0.131,2.357,0.393c0.734,0.262,1.377,0.654,1.926,1.18
			c0.523,0.523,0.943,1.178,1.258,1.965c0.314,0.785,0.473,1.703,0.473,2.75v13.873H232.982z M232.982,426.87
			c-0.445-0.078-0.812-0.117-1.1-0.117c-0.865,0-1.605,0.203-2.221,0.609s-0.924,1.146-0.924,2.221c0,0.76,0.184,1.375,0.551,1.846
			c0.367,0.473,0.877,0.709,1.533,0.709c0.68,0,1.211-0.223,1.59-0.668c0.381-0.445,0.57-1.074,0.57-1.887V426.87z"/>
		<path fill="#EEAF1D" d="M251.924,415.515v19.924h-4.008v-1.926h-0.078c-0.42,0.629-0.924,1.146-1.514,1.553
			c-0.59,0.404-1.344,0.607-2.26,0.607c-0.498,0-0.996-0.084-1.492-0.254c-0.498-0.17-0.943-0.453-1.338-0.846
			c-0.393-0.393-0.707-0.896-0.941-1.514c-0.236-0.615-0.355-1.367-0.355-2.258v-15.287h4.01v13.793c0,0.734,0.17,1.311,0.51,1.729
			c0.34,0.42,0.826,0.629,1.455,0.629c0.76,0,1.283-0.236,1.572-0.707c0.287-0.471,0.432-1.152,0.432-2.043v-13.4H251.924z"/>
		<path fill="#EEAF1D" d="M255.225,415.515v-6.053h4.01v6.053h2.475v3.143h-2.475V429.7c0,0.473,0.045,0.84,0.137,1.102
			s0.242,0.457,0.453,0.588c0.209,0.133,0.465,0.211,0.766,0.236c0.301,0.027,0.674,0.039,1.119,0.039v3.773h-1.65
			c-0.916,0-1.684-0.145-2.299-0.434c-0.615-0.287-1.107-0.654-1.473-1.1c-0.367-0.445-0.637-0.949-0.807-1.514
			c-0.17-0.562-0.256-1.105-0.256-1.631v-12.104h-2.004v-3.143H255.225z"/>
		<path fill="#EEAF1D" d="M263.242,411.466v-4.008h4.008v4.008H263.242z M263.242,435.438v-19.924h4.008v19.924H263.242z"/>
		<path fill="#EEAF1D" d="M271.062,435.438v-16.781h-1.965v-3.143h1.965v-2.713c0-0.969,0.143-1.787,0.432-2.455
			s0.682-1.225,1.18-1.67c0.471-0.445,1.014-0.76,1.631-0.943c0.615-0.184,1.25-0.275,1.906-0.275h1.846v3.771h-1.807
			c-0.787,0-1.18,0.459-1.18,1.377v2.908h2.986v3.143h-2.986v16.781H271.062z"/>
		<path fill="#EEAF1D" d="M291.26,415.515v19.924h-4.008v-1.926h-0.078c-0.42,0.629-0.924,1.146-1.514,1.553
			c-0.59,0.404-1.344,0.607-2.26,0.607c-0.498,0-0.996-0.084-1.492-0.254c-0.498-0.17-0.943-0.453-1.338-0.846
			c-0.393-0.393-0.707-0.896-0.941-1.514c-0.236-0.615-0.355-1.367-0.355-2.258v-15.287h4.01v13.793c0,0.734,0.17,1.311,0.51,1.729
			c0.34,0.42,0.826,0.629,1.455,0.629c0.76,0,1.283-0.236,1.572-0.707c0.287-0.471,0.432-1.152,0.432-2.043v-13.4H291.26z"/>
		<path fill="#EEAF1D" d="M294.326,407.458h4.008v22.359c0,0.762,0.137,1.277,0.412,1.553s0.793,0.453,1.553,0.531v3.771
			c-0.918,0-1.742-0.072-2.477-0.215c-0.732-0.145-1.361-0.426-1.885-0.846c-0.525-0.393-0.924-0.949-1.199-1.67
			s-0.412-1.67-0.412-2.85V407.458z"/>
	</g>
</g>
<g>
	<g opacity="0.8">
		<path fill="#004A85" d="M435.67,423.901c0.223,0.391,0.363,0.895,0.363,1.396c0,0.447-0.113,0.867-0.309,1.23l-6.789,11.65
			c-0.252,0.391-0.559,0.559-0.895,0.559c-0.223,0-0.475-0.084-0.697-0.195c-0.363-0.195-0.615-0.475-0.615-0.838
			c0-0.168,0.057-0.393,0.195-0.588l6.482-11.092c0.111-0.252,0.195-0.502,0.195-0.754c0-0.279-0.084-0.531-0.195-0.783
			l-6.482-11.062c-0.139-0.225-0.195-0.42-0.195-0.615c0-0.363,0.252-0.643,0.615-0.838c0.223-0.111,0.447-0.195,0.67-0.195
			c0.363,0,0.67,0.168,0.922,0.586L435.67,423.901z"/>
	</g>
	<g opacity="0.4">
		<path fill="#004A85" d="M460.869,438.88h-3.465v-0.555h2.91v-26.379h-2.91v-0.555h3.465V438.88z"/>
	</g>
	<g opacity="0.6">
		<path fill="#004A85" d="M449.684,438.626c0.65-2.311,1.1-4.699,1.346-7.166c0.246-2.469,0.371-4.947,0.371-7.438
			c0-2.311-0.152-4.514-0.455-6.611s-0.723-4.133-1.262-6.107h1.145c0.672,1.01,1.262,2.07,1.766,3.18
			c0.506,1.111,0.926,2.271,1.262,3.482c0.314,1.211,0.555,2.412,0.725,3.602c0.168,1.188,0.252,2.32,0.252,3.398
			c0,1.143-0.09,2.32-0.27,3.531c-0.18,1.213-0.438,2.424-0.773,3.635c-0.719,2.422-1.705,4.588-2.961,6.494H449.684z"/>
	</g>
	<g opacity="0.4">
		<path fill="#004A85" d="M446.328,427.739c-0.146,0-0.307,0.016-0.482,0.047s-0.336,0.094-0.482,0.188
			c-0.145,0.092-0.264,0.238-0.357,0.434c-0.092,0.197-0.139,0.451-0.139,0.762v4.477c0,3.4-1.545,5.1-4.633,5.1h-3.605v-5.254h2.33
			c0.188,0,0.307-0.057,0.359-0.172c0.051-0.113,0.076-0.232,0.076-0.357v-4.414c0-0.662,0.1-1.207,0.297-1.633
			c0.195-0.424,0.418-0.762,0.668-1.01c0.289-0.289,0.621-0.508,0.994-0.652c-0.373-0.145-0.705-0.363-0.994-0.652
			c-0.25-0.25-0.473-0.586-0.668-1.012c-0.197-0.424-0.297-0.969-0.297-1.631v-4.416c0-0.123-0.025-0.242-0.076-0.357
			c-0.053-0.113-0.172-0.17-0.359-0.17h-2.33v-5.254h3.605c3.088,0,4.633,1.699,4.633,5.098v4.477c0,0.311,0.047,0.566,0.139,0.762
			c0.094,0.197,0.213,0.342,0.357,0.436c0.146,0.094,0.307,0.156,0.482,0.188s0.336,0.045,0.482,0.045h0.684v4.975H446.328z"/>
	</g>
	<g>
		<rect x="425" y="407" fill="#004A85" width="36" height="3"/>
	</g>
	<g>
		<rect x="425" y="441" fill="#004A85" width="36" height="3"/>
	</g>
	<g opacity="0.8">
		<path fill="#004A85" d="M488.846,415.515l-4.717,19.924h-3.535l-2.201-11.83h-0.078l-2.201,11.83h-3.537l-4.717-19.924h4.246
			l2.436,12.379h0.078l2.24-12.379h3.145l2.121,12.379h0.08l2.396-12.379H488.846z"/>
		<path fill="#004A85" d="M501.893,426.989h-7.938v2.711c0,0.629,0.176,1.113,0.529,1.455c0.354,0.34,0.832,0.51,1.436,0.51
			c0.76,0,1.264-0.223,1.512-0.668c0.25-0.445,0.4-0.891,0.453-1.336h4.008c0,1.756-0.537,3.17-1.611,4.244
			c-0.523,0.551-1.152,0.982-1.887,1.297c-0.732,0.314-1.559,0.471-2.475,0.471c-1.258,0-2.326-0.26-3.203-0.785
			c-0.879-0.523-1.553-1.219-2.023-2.082c-0.289-0.525-0.486-1.127-0.59-1.809c-0.105-0.682-0.158-1.428-0.158-2.24v-6.562
			c0-0.812,0.053-1.559,0.158-2.24c0.104-0.68,0.301-1.283,0.59-1.807c0.471-0.865,1.145-1.559,2.023-2.084
			c0.877-0.523,1.945-0.785,3.203-0.785c0.916,0,1.748,0.156,2.494,0.471c0.748,0.314,1.383,0.748,1.906,1.297
			c1.049,1.18,1.572,2.66,1.572,4.441V426.989z M493.955,423.845h3.93v-2.279c0-0.76-0.178-1.33-0.531-1.709s-0.832-0.57-1.434-0.57
			c-0.604,0-1.082,0.191-1.436,0.57s-0.529,0.949-0.529,1.709V423.845z"/>
	</g>
	<g opacity="0.4">
		<path fill="#004A85" d="M519.732,435.438v-2.045h-0.078c-0.523,0.734-1.055,1.297-1.592,1.691
			c-0.537,0.393-1.289,0.588-2.26,0.588c-0.471,0-0.949-0.072-1.434-0.215c-0.484-0.145-0.949-0.412-1.395-0.807
			c-0.447-0.365-0.807-0.896-1.082-1.592c-0.273-0.693-0.412-1.59-0.412-2.691c0-1.125,0.092-2.115,0.275-2.967
			s0.523-1.564,1.021-2.143c0.473-0.549,1.113-0.961,1.926-1.236s1.848-0.414,3.105-0.414c0.131,0,0.273,0,0.432,0
			c0.156,0,0.301,0.014,0.432,0.041c0.131,0.025,0.289,0.039,0.473,0.039c0.182,0,0.379,0.014,0.588,0.039v-2.084
			c0-0.68-0.143-1.244-0.432-1.689s-0.812-0.668-1.572-0.668c-0.523,0-1.002,0.172-1.434,0.512s-0.715,0.838-0.846,1.492h-3.891
			c0.105-1.781,0.709-3.223,1.809-4.322c0.523-0.523,1.152-0.936,1.887-1.238c0.732-0.301,1.559-0.451,2.475-0.451
			c0.838,0,1.625,0.131,2.359,0.393c0.732,0.262,1.375,0.654,1.924,1.18c0.525,0.523,0.943,1.178,1.258,1.965
			c0.314,0.785,0.473,1.703,0.473,2.75v13.873H519.732z M519.732,426.87c-0.445-0.078-0.811-0.117-1.1-0.117
			c-0.865,0-1.605,0.203-2.221,0.609s-0.924,1.146-0.924,2.221c0,0.76,0.184,1.375,0.551,1.846c0.367,0.473,0.877,0.709,1.533,0.709
			c0.682,0,1.211-0.223,1.592-0.668c0.379-0.445,0.568-1.074,0.568-1.887V426.87z"/>
		<path fill="#004A85" d="M526.689,435.438v-19.924h4.008v2.121c0.812-0.732,1.611-1.311,2.396-1.729
			c0.787-0.42,1.756-0.629,2.908-0.629v4.244c-0.393-0.158-0.799-0.236-1.217-0.236c-0.42,0-0.873,0.072-1.357,0.217
			s-0.922,0.387-1.316,0.727c-0.418,0.342-0.76,0.785-1.021,1.336s-0.393,1.232-0.393,2.043v11.83H526.689z"/>
		<path fill="#004A85" d="M549.207,426.989h-7.939v2.711c0,0.629,0.178,1.113,0.531,1.455c0.354,0.34,0.832,0.51,1.434,0.51
			c0.76,0,1.264-0.223,1.514-0.668c0.248-0.445,0.398-0.891,0.451-1.336h4.01c0,1.756-0.537,3.17-1.611,4.244
			c-0.525,0.551-1.154,0.982-1.887,1.297c-0.734,0.314-1.559,0.471-2.477,0.471c-1.256,0-2.324-0.26-3.201-0.785
			c-0.879-0.523-1.553-1.219-2.025-2.082c-0.287-0.525-0.484-1.127-0.588-1.809c-0.105-0.682-0.158-1.428-0.158-2.24v-6.562
			c0-0.812,0.053-1.559,0.158-2.24c0.104-0.68,0.301-1.283,0.588-1.807c0.473-0.865,1.146-1.559,2.025-2.084
			c0.877-0.523,1.945-0.785,3.201-0.785c0.918,0,1.75,0.156,2.496,0.471s1.381,0.748,1.906,1.297c1.047,1.18,1.572,2.66,1.572,4.441
			V426.989z M541.268,423.845h3.93v-2.279c0-0.76-0.176-1.33-0.529-1.709s-0.832-0.57-1.436-0.57c-0.602,0-1.08,0.191-1.434,0.57
			s-0.531,0.949-0.531,1.709V423.845z"/>
	</g>
	<g opacity="0.6">
		<path fill="#004A85" d="M559.463,435.438v-27.98h4.01v9.863h0.078c0.445-0.654,0.975-1.158,1.592-1.514
			c0.615-0.354,1.316-0.529,2.102-0.529c0.969,0,1.723,0.17,2.26,0.51c0.537,0.342,0.977,0.773,1.316,1.297
			c0.262,0.42,0.432,0.971,0.512,1.65c0.078,0.682,0.117,1.744,0.117,3.184v7.586c0,1.1-0.053,1.977-0.156,2.633
			c-0.105,0.654-0.275,1.205-0.512,1.65c-0.682,1.258-1.848,1.885-3.498,1.885c-0.996,0-1.756-0.195-2.279-0.588
			c-0.523-0.395-1.035-0.879-1.531-1.455v1.809H559.463z M567.441,421.644c0-0.629-0.139-1.178-0.414-1.65
			c-0.273-0.471-0.791-0.707-1.551-0.707c-0.578,0-1.055,0.203-1.436,0.609c-0.379,0.406-0.568,0.924-0.568,1.553v7.742
			c0,0.732,0.182,1.33,0.549,1.787c0.367,0.459,0.852,0.688,1.455,0.688c0.68,0,1.178-0.248,1.492-0.746s0.473-1.152,0.473-1.965
			V421.644z"/>
		<path fill="#004A85" d="M586.344,426.989h-7.939v2.711c0,0.629,0.178,1.113,0.531,1.455c0.354,0.34,0.83,0.51,1.434,0.51
			c0.76,0,1.264-0.223,1.514-0.668c0.248-0.445,0.398-0.891,0.451-1.336h4.01c0,1.756-0.539,3.17-1.611,4.244
			c-0.525,0.551-1.154,0.982-1.887,1.297c-0.734,0.314-1.559,0.471-2.477,0.471c-1.258,0-2.324-0.26-3.203-0.785
			c-0.877-0.523-1.551-1.219-2.023-2.082c-0.289-0.525-0.484-1.127-0.59-1.809c-0.104-0.682-0.156-1.428-0.156-2.24v-6.562
			c0-0.812,0.053-1.559,0.156-2.24c0.105-0.68,0.301-1.283,0.59-1.807c0.473-0.865,1.146-1.559,2.023-2.084
			c0.879-0.523,1.945-0.785,3.203-0.785c0.918,0,1.75,0.156,2.496,0.471s1.381,0.748,1.906,1.297c1.047,1.18,1.572,2.66,1.572,4.441
			V426.989z M578.404,423.845h3.93v-2.279c0-0.76-0.176-1.33-0.529-1.709s-0.832-0.57-1.436-0.57s-1.08,0.191-1.434,0.57
			s-0.531,0.949-0.531,1.709V423.845z"/>
		<path fill="#004A85" d="M596.875,435.438v-2.045h-0.08c-0.523,0.734-1.055,1.297-1.59,1.691c-0.537,0.393-1.291,0.588-2.26,0.588
			c-0.473,0-0.951-0.072-1.436-0.215c-0.484-0.145-0.949-0.412-1.395-0.807c-0.445-0.365-0.805-0.896-1.08-1.592
			c-0.275-0.693-0.414-1.59-0.414-2.691c0-1.125,0.092-2.115,0.275-2.967s0.523-1.564,1.021-2.143
			c0.473-0.549,1.113-0.961,1.926-1.236s1.848-0.414,3.105-0.414c0.131,0,0.275,0,0.432,0c0.158,0,0.301,0.014,0.432,0.041
			c0.131,0.025,0.289,0.039,0.473,0.039s0.379,0.014,0.59,0.039v-2.084c0-0.68-0.145-1.244-0.434-1.689
			c-0.287-0.445-0.812-0.668-1.57-0.668c-0.525,0-1.002,0.172-1.436,0.512c-0.432,0.34-0.713,0.838-0.844,1.492h-3.891
			c0.104-1.781,0.707-3.223,1.807-4.322c0.523-0.523,1.152-0.936,1.887-1.238c0.732-0.301,1.559-0.451,2.477-0.451
			c0.838,0,1.623,0.131,2.357,0.393c0.732,0.262,1.375,0.654,1.926,1.18c0.523,0.523,0.943,1.178,1.258,1.965
			c0.314,0.785,0.471,1.703,0.471,2.75v13.873H596.875z M596.875,426.87c-0.447-0.078-0.812-0.117-1.102-0.117
			c-0.863,0-1.604,0.203-2.219,0.609c-0.617,0.406-0.924,1.146-0.924,2.221c0,0.76,0.182,1.375,0.549,1.846
			c0.367,0.473,0.879,0.709,1.533,0.709c0.682,0,1.211-0.223,1.592-0.668c0.379-0.445,0.57-1.074,0.57-1.887V426.87z"/>
		<path fill="#004A85" d="M615.816,415.515v19.924h-4.01v-1.926h-0.078c-0.42,0.629-0.924,1.146-1.512,1.553
			c-0.59,0.404-1.344,0.607-2.26,0.607c-0.498,0-0.996-0.084-1.494-0.254s-0.943-0.453-1.336-0.846s-0.707-0.896-0.943-1.514
			c-0.236-0.615-0.354-1.367-0.354-2.258v-15.287h4.008v13.793c0,0.734,0.17,1.311,0.512,1.729c0.34,0.42,0.824,0.629,1.453,0.629
			c0.76,0,1.283-0.236,1.572-0.707s0.432-1.152,0.432-2.043v-13.4H615.816z"/>
		<path fill="#004A85" d="M619.117,415.515v-6.053h4.008v6.053h2.477v3.143h-2.477V429.7c0,0.473,0.047,0.84,0.139,1.102
			s0.242,0.457,0.451,0.588c0.209,0.133,0.465,0.211,0.766,0.236c0.301,0.027,0.676,0.039,1.121,0.039v3.773h-1.65
			c-0.918,0-1.684-0.145-2.299-0.434c-0.617-0.287-1.107-0.654-1.475-1.1s-0.635-0.949-0.805-1.514
			c-0.172-0.562-0.256-1.105-0.256-1.631v-12.104h-2.004v-3.143H619.117z"/>
		<path fill="#004A85" d="M627.133,411.466v-4.008h4.01v4.008H627.133z M627.133,435.438v-19.924h4.01v19.924H627.133z"/>
		<path fill="#004A85" d="M634.953,435.438v-16.781h-1.965v-3.143h1.965v-2.713c0-0.969,0.145-1.787,0.434-2.455
			c0.287-0.668,0.68-1.225,1.178-1.67c0.473-0.445,1.016-0.76,1.631-0.943s1.252-0.275,1.906-0.275h1.848v3.771h-1.809
			c-0.785,0-1.178,0.459-1.178,1.377v2.908h2.986v3.143h-2.986v16.781H634.953z"/>
		<path fill="#004A85" d="M655.152,415.515v19.924h-4.01v-1.926h-0.078c-0.42,0.629-0.924,1.146-1.512,1.553
			c-0.59,0.404-1.344,0.607-2.26,0.607c-0.498,0-0.996-0.084-1.494-0.254s-0.943-0.453-1.336-0.846s-0.707-0.896-0.943-1.514
			c-0.236-0.615-0.354-1.367-0.354-2.258v-15.287h4.008v13.793c0,0.734,0.17,1.311,0.512,1.729c0.34,0.42,0.824,0.629,1.453,0.629
			c0.76,0,1.283-0.236,1.572-0.707s0.432-1.152,0.432-2.043v-13.4H655.152z"/>
		<path fill="#004A85" d="M658.217,407.458h4.01v22.359c0,0.762,0.137,1.277,0.412,1.553s0.791,0.453,1.553,0.531v3.771
			c-0.918,0-1.744-0.072-2.477-0.215c-0.734-0.145-1.363-0.426-1.887-0.846c-0.523-0.393-0.924-0.949-1.199-1.67
			c-0.273-0.721-0.412-1.67-0.412-2.85V407.458z"/>
	</g>
</g>
</svg>
